<svg xmlns="http://www.w3.org/2000/svg" viewBox="0 0 64 64" role="img" aria-label="DeskDibs">
  <defs>
    <linearGradient id="g" x1="0%" x2="100%" y1="0%" y2="100%">
      <stop offset="0%" stop-color="#2684ff"/>
      <stop offset="100%" stop-color="#0052cc"/>
    </linearGradient>
  </defs>
  <rect width="64" height="64" rx="18" fill="url(#g)"/>
  <path d="M17 18h18c7.7 0 14 6.3 14 14s-6.3 14-14 14H17V18Zm8 8v12h10c3.3 0 6-2.7 6-6s-2.7-6-6-6H25Z" fill="#fff" opacity=".96"/>
  <path d="M27 31h15a7 7 0 0 1 7 7v3H31a7 7 0 0 1-7-7v0a3 3 0 0 1 3-3Z" fill="#bfdbfe"/>
  <path d="M29 46v5M45 46v5M18 51h35" stroke="#fff" stroke-width="3.5" stroke-linecap="round"/>
  <circle cx="48" cy="17" r="7" fill="#fff"/>
  <path d="M45 17.2l2.1 2.1 4-4.5" fill="none" stroke="#0052cc" stroke-width="2.2" stroke-linecap="round" stroke-linejoin="round"/>
</svg>
